<svg width="208" height="46" viewBox="0 0 208 46" fill="none" xmlns="http://www.w3.org/2000/svg">
<path d="M28.3304 13.1065C28.3304 12.416 28.1011 11.5534 27.4679 9.36842L26.2601 5.22768C25.7428 3.33062 25.4548 2.46808 24.4777 2.46808C23.3858 2.46808 23.2698 3.61858 22.0047 3.61858H6.4789C5.21375 3.61858 5.09776 2.46808 3.94859 2.46808C3.02872 2.46808 2.74077 3.33062 2.22351 5.22768L1.01568 9.36842C0.382442 11.5534 0.153137 12.3587 0.153137 13.1065C0.153137 13.7971 0.613072 14.257 1.24498 14.257C1.87689 14.257 2.2795 13.8544 2.74077 13.0492C5.61636 7.87397 6.99616 6.55016 9.23984 6.55016H9.98773C11.5408 6.55016 11.7128 7.58467 11.7128 8.85116V38.7549C11.7128 42.6076 8.72258 41.0545 8.72258 43.4129C8.72258 43.9888 9.18251 44.506 9.98773 44.506C11.0222 44.506 12.3461 44.3341 14.2431 44.3341C16.1988 44.3341 17.4067 44.506 18.4985 44.506C19.2464 44.506 19.7063 43.9888 19.7063 43.4129C19.7063 41.0545 16.7734 42.6076 16.7734 38.7549V8.85116C16.7734 7.52868 16.9454 6.55016 18.4412 6.55016H19.2464C21.5474 6.55016 22.8112 7.98862 25.7455 13.0492C26.2627 13.8544 26.608 14.257 27.2413 14.257C27.8745 14.257 28.3331 13.7971 28.3331 13.1065H28.3304Z" fill="#05322B"/>
<path d="M75.9449 15.0049C72.6854 15.0049 69.9925 16.4087 68.0061 18.7204C68.0754 18.3245 68.1234 17.9712 68.1234 17.7086C68.1234 16.3288 66.6863 15.4075 64.8465 15.4075C61.339 15.4075 58.3475 18.6284 56.9103 23.1718V17.5352C56.9103 16.558 56.7957 15.6369 55.9331 15.6369C55.4732 15.6369 55.1279 15.7515 52.6563 17.1326C50.126 18.6284 49.3208 19.1457 49.3208 20.0082C49.3208 22.0213 52.2537 20.2948 52.2537 23.7464V38.2963C52.2537 40.1813 51.8391 41.0772 51.3418 41.5945C50.7605 41.0239 50.194 39.992 49.954 37.7217L48.6888 24.9555C48.3436 21.0454 47.1357 15.4662 42.0178 15.4662C38.9116 15.4662 36.5546 17.4792 35.1748 20.7001V2.75736C35.1748 1.66552 35.0601 0.860298 34.1976 0.860298C33.7377 0.860298 33.3924 0.974945 30.9767 2.35608C28.3891 3.85187 27.5839 4.36913 27.5839 5.23168C27.5839 7.24472 30.5168 5.46231 30.5168 8.96981V38.2989C30.5168 43.0143 27.9292 41.5771 27.9292 43.3595C27.9292 43.8768 28.2158 44.51 29.021 44.51C29.9409 44.51 31.1487 44.3381 32.8738 44.3381C34.5415 44.3381 35.8067 44.51 36.7266 44.51C37.5318 44.51 37.8197 43.8195 37.8197 43.3595C37.8197 41.5771 35.1748 43.0143 35.1748 38.2989V28.1204C35.1748 22.7718 37.3598 19.5523 40.2354 19.5523C43.1683 19.5523 43.7429 23.1758 44.1468 27.3738L45.2387 37.5524C45.296 38.071 45.296 38.9335 45.296 39.1628C45.296 42.7863 42.651 41.6358 42.651 43.3035C42.651 44.0514 43.1683 44.5114 43.9735 44.5114C45.1227 44.5114 45.8706 44.3394 47.8263 44.3394C49.0275 44.3394 49.8127 44.4087 50.5059 44.4594C50.5899 44.4767 50.6592 44.5127 50.7579 44.5127C50.8765 44.5127 51.0152 44.5034 51.1445 44.4994C51.3205 44.5074 51.4964 44.5127 51.6791 44.5127C51.8737 44.5127 52.055 44.486 52.219 44.4367C52.8816 44.3901 53.6441 44.3394 54.552 44.3394C56.4504 44.3394 57.8875 44.5114 58.922 44.5114C59.6699 44.5114 60.0725 43.8781 60.0725 43.3609C60.0725 41.4052 56.909 43.0156 56.909 38.3003V32.7224C56.909 24.4982 60.1872 19.9549 62.4882 19.9549C63.3507 19.9549 63.9253 20.3575 64.4426 22.2559C64.6812 23.0531 64.9278 23.5011 65.2625 23.7117C64.5826 25.7421 64.2119 28.0137 64.2119 30.4214C64.2119 39.2775 68.7553 45.3726 75.369 45.3726C82.5573 45.3726 87.1007 38.4722 87.1007 30.0761C87.1007 21.1614 82.5573 15.0089 75.9436 15.0089L75.9449 15.0049ZM76.1742 42.3783C72.2068 42.3783 69.2166 36.3979 69.2166 28.347C69.2166 22.4239 71.1723 17.9379 75.0824 17.9379C79.0512 17.9379 82.0987 23.9757 82.0987 32.0852C82.0987 38.0656 80.143 42.3783 76.1756 42.3783H76.1742Z" fill="#05322B"/>
<path d="M166.92 41.3438C163.987 40.5959 163.756 39.3881 163.355 36.0526L162.321 26.2193C161.745 21.1014 160.365 15.4649 154.155 15.4649C150.877 15.4649 147.829 17.018 145.759 20.0655C145.299 20.7561 145.068 21.3307 145.068 21.848C145.068 22.5385 145.528 22.9398 146.103 22.9398C146.448 22.9398 146.908 22.7678 147.483 22.1346C149.265 20.2375 150.761 19.2017 152.601 19.2017C156.913 19.2017 157.545 24.6649 157.833 27.7698L157.948 28.6323C156.395 27.8844 154.899 27.4818 153.059 27.4818C149.096 27.4818 146.19 29.2962 144.716 32.0145C144.787 31.2546 144.836 30.4787 144.836 29.6668C144.836 21.0987 140.81 15.2902 135.232 15.2902C131.668 15.2902 128.964 17.13 127.354 20.1215V2.18011C127.354 1.54687 127.066 0.857635 126.319 0.857635C125.859 0.857635 125.399 0.972282 122.869 2.41074C120.281 3.8492 119.419 4.30914 119.419 5.11435C119.419 7.24205 122.696 5.40098 122.696 8.90981V15.9515C122.534 15.9008 122.362 15.8675 122.178 15.8675C121.086 15.8675 119.936 16.0395 118.843 16.0395C117.578 16.0395 116.543 15.8675 115.622 15.8675C114.759 15.8675 114.185 16.2128 114.185 16.9593C114.185 18.5124 116.83 18.1098 116.83 20.6975C116.83 20.9841 116.6 22.4225 116.255 23.8023L112.057 38.5816L107.802 23.6877C107.399 22.3652 107.054 20.7548 107.054 20.2375C107.054 18.0525 109.813 18.5124 109.813 16.9593C109.813 16.1541 109.239 15.8675 108.434 15.8675C107.399 15.8675 106.249 16.0395 104.465 16.0395C102.568 16.0395 101.36 15.8675 100.267 15.8675C99.6922 15.8675 99.059 16.1554 99.059 16.8447C99.059 18.2818 101.244 17.7645 102.337 21.5027L102.682 22.5945L97.0459 38.6962L92.9052 23.6877C92.5599 22.4799 92.2733 21.0427 92.2733 20.6975C92.2733 18.1098 94.6889 18.4538 94.6889 16.9593C94.6889 16.1541 94.1143 15.8675 93.3664 15.8675C92.3319 15.8675 91.1814 16.0395 89.3977 16.0395C87.4433 16.0395 86.1768 15.8675 85.0276 15.8675C84.3371 15.8675 83.8198 16.1554 83.8198 16.8447C83.8198 18.3405 86.2355 18.0525 87.27 21.5027L93.3651 42.7223C93.7677 44.1034 94.2277 44.6207 95.8954 44.6207C97.7352 44.6207 98.0231 44.2181 98.483 42.781L104.004 26.9659L108.719 42.7223C109.122 44.1034 109.524 44.6207 111.249 44.6207C112.974 44.6207 113.377 44.1608 113.78 42.781L119.991 21.6173C120.669 19.3163 121.914 18.6244 122.693 17.9992V43.5289C122.693 44.3341 123.038 44.9087 123.727 44.9087C124.647 44.9087 125.855 43.2409 127.12 43.2409C128.385 43.2409 130.111 45.0806 133.906 45.0806C138.135 45.0806 141.837 42.0797 143.649 36.9938C143.893 41.5545 147.193 44.966 151.675 44.966C155.068 44.966 158.001 43.1836 159.381 40.8252C160.129 43.5275 162.026 44.794 163.636 44.794C165.936 44.794 167.662 43.2409 167.662 42.2637C167.662 41.8038 167.432 41.4585 166.915 41.3438H166.92ZM133.681 42.2064C130 42.2064 127.355 38.8135 127.355 33.005V28.2897C127.355 22.1946 130.173 18.9164 133.278 18.9164C137.245 18.9164 139.948 24.3223 139.948 31.4532C139.948 38.6416 137.245 42.2064 133.679 42.2064H133.681ZM153.061 41.7464C150.301 41.7464 148.403 39.2161 148.403 35.8806C148.403 32.2585 150.589 30.3027 153.751 30.3027C155.132 30.3027 156.8 30.648 158.237 31.6825L158.87 37.5484C158.008 39.9067 155.707 41.7464 153.062 41.7464H153.061Z" fill="#05322B"/>
<path d="M184.572 38.123C184.572 37.6057 184.227 37.1458 183.595 37.1458C183.078 37.1458 182.675 37.3751 182.33 38.0083C181.007 40.424 179.223 41.6318 176.981 41.6318C172.84 41.6318 169.505 36.5139 169.505 28.807C169.505 22.3079 171.69 17.8232 175.256 17.8232C177.786 17.8232 178.878 19.5483 179.626 24.149C179.798 25.4141 180.317 25.5874 180.891 25.5874C181.294 25.5874 181.582 25.3581 182.042 24.7822C183.538 22.6545 183.881 21.2747 183.881 20.0669C183.881 17.8245 180.605 15.0636 176.348 15.0636C169.39 15.0636 164.616 21.4467 164.616 30.648C164.616 40.1373 169.448 45.3699 175.369 45.3699C179.97 45.3699 182.96 42.7823 184.168 39.8494C184.397 39.2161 184.571 38.7575 184.571 38.1243L184.572 38.123Z" fill="#05322B"/>
<path d="M203.895 38.9855L197.34 25.2408L201.48 20.5828C203.665 18.1098 206.254 18.6271 206.254 16.902C206.254 16.2688 205.794 15.8675 205.161 15.8675C204.127 15.8675 202.171 16.0395 201.02 16.0395C199.87 16.0395 198.145 15.8675 197.282 15.8675C196.477 15.8675 196.017 16.2128 196.017 16.9593C196.017 18.5698 198.202 17.9365 198.202 19.4323C198.202 20.0082 197.627 20.8708 196.649 21.9626L189.921 29.5535V2.23744C189.921 1.31757 189.575 0.857635 188.943 0.857635C188.483 0.857635 188.024 1.02962 185.493 2.46808C182.848 3.96386 182.331 4.42245 182.331 5.17035C182.331 7.24072 185.264 5.39965 185.264 8.90848V38.2949C185.264 43.0103 182.676 41.5731 182.676 43.3555C182.676 43.8728 182.963 44.506 183.768 44.506C184.688 44.506 185.896 44.3341 187.621 44.3341C189.289 44.3341 190.554 44.506 191.474 44.506C192.222 44.506 192.567 43.8155 192.567 43.3555C192.567 41.5731 189.922 43.0103 189.922 38.2949V33.5796L194.063 28.9789L198.49 38.1803C198.835 38.9855 199.181 39.9054 199.181 40.424C199.181 42.437 197.226 41.9198 197.226 43.3569C197.226 44.1621 197.686 44.5074 198.434 44.5074C199.411 44.5074 200.562 44.3354 202.287 44.3354C204.127 44.3354 205.334 44.5074 206.428 44.5074C207.002 44.5074 207.519 44.1621 207.519 43.5302C207.519 41.8624 205.68 42.725 203.896 38.9868L203.895 38.9855Z" fill="#05322B"/>
</svg>
