<svg width="43" height="40" viewBox="0 0 43 40" fill="none" xmlns="http://www.w3.org/2000/svg">
<path d="M26.3482 12.51L34.1525 7.06547C34.959 6.77351 39.1731 6.71352 39.473 7.11879C39.5677 7.24678 40.3462 9.97172 40.3636 10.1704C40.4249 10.8423 40.3409 11.9861 39.9183 12.506C38.3052 14.0045 36.7201 15.4629 34.9217 16.7441L29.9264 19.1957C31.6382 19.921 33.4446 20.4715 35.119 21.2928C37.2454 22.3353 44.3323 25.7974 42.25 28.8063C41.2021 30.3221 38.8625 29.8155 37.26 29.4796C36.6214 29.3463 34.875 28.8583 34.2538 28.6477C32.9766 28.2171 31.9634 27.2399 30.7116 26.8533C31.2382 28.2358 33.3979 30.1075 33.6112 31.5033C33.7165 32.1845 33.3246 35.0708 33.1153 35.8427C32.906 36.6146 29.6211 38.5543 28.9079 38.5809C28.5053 38.5969 27.5841 37.8904 27.3241 37.5278L22.8847 28.9503C22.3981 31.9472 22.9181 34.9135 22.1288 37.9237C20.3971 39.9421 14.2993 40.0967 13.8527 37.2865C13.4354 34.6695 15.3152 30.6567 15.4538 27.9878C14.0074 28.5637 13.0595 30.3141 11.9236 31.3193C10.6465 32.4485 9.12938 33.1097 7.73758 34.0549C6.49776 34.3989 4.86466 32.9711 4.48872 31.9139C4.12477 30.8887 5.34593 27.1119 5.98584 26.1694C6.43644 25.5055 7.18033 25.2829 7.64026 24.7429C8.64545 23.5631 9.53066 22.286 10.5638 21.1354C8.60013 21.4327 7.15767 20.0023 5.65255 19.6077C4.51672 19.3104 2.87028 19.5517 1.94774 18.9211C0.169329 17.7053 1.21451 15.107 1.37049 13.2912C1.81976 13.4019 2.18638 13.1446 2.58366 13.0806C4.83267 12.7153 8.84676 13.6059 11.2517 14.1138C11.9356 14.2578 12.6462 15.035 13.5981 14.863C13.8994 14.6497 12.9888 12.9526 12.7769 12.546C11.6424 10.369 9.13472 7.68938 9.06673 5.17241C9.0294 3.77927 9.36002 4.29653 10.1039 3.96725C11.3824 3.40066 13.9207 1.92087 15.1285 1.77556C16.4923 1.61158 17.8481 4.91511 18.0881 6.09227C18.2227 6.75218 18.0094 7.81203 18.0574 7.88802C18.5294 8.64657 19.3239 7.31077 19.4506 6.88683C19.7745 5.79632 19.6412 4.59782 20.0198 3.54064C20.3464 2.62877 22.3968 0.382427 23.3393 0.189122C23.5993 0.135796 25.3564 -0.0268474 25.4577 0.00381483C26.0616 0.185122 27.916 2.19817 28.008 2.77542C28.2066 4.00591 27.3574 4.70981 27.3374 4.86712L26.3469 12.5154L26.3482 12.51ZM23.8539 17.9746C23.8139 17.9279 23.0981 17.7453 22.7261 17.468C21.9089 16.8574 21.6169 16.0082 20.3491 16.2122C19.0946 16.4135 17.7481 19.7183 18.2387 20.3316C18.3201 20.4342 20.3718 21.4234 20.5917 21.4887C22.1222 21.9407 24.5258 18.7545 23.8539 17.9732V17.9746Z" fill="#B89E47"/>
</svg>
